    <svg xmlns="http://www.w3.org/2000/svg" width="198" height="171" viewBox="0 0 198 171" fill="none">
<g filter="url(#filter0_d)">
<path d="M50.0714 161.411C41.3619 161.411 33.3057 160.36 25.9027 158.257C18.4996 156.154 12.9111 153.601 9.13699 150.597C6.379 148.494 5 146.616 5 144.964C5 143.162 5.94352 140.684 7.83057 137.53C9.86277 134.375 11.4595 132.798 12.6208 132.798C13.2014 132.798 14.7255 133.549 17.1932 135.051C21.6931 137.605 26.4833 139.782 31.5638 141.585C36.7895 143.387 42.9587 144.288 50.0714 144.288C58.4905 144.288 65.3129 141.885 70.5386 137.079C75.9094 132.122 78.5948 125.664 78.5948 117.703C78.5948 112.146 77.1432 107.565 74.2401 103.96C71.3369 100.205 67.7806 97.2766 63.571 95.1738C59.5066 92.9209 53.5552 90.2173 45.7167 87.0632C37.2975 83.6086 30.6203 80.4545 25.6849 77.6007C20.7496 74.747 16.54 70.5414 13.0562 64.9841C9.57246 59.2766 7.83057 51.8418 7.83057 42.6798C7.83057 34.5691 9.79019 27.3597 13.7094 21.0514C17.7739 14.7431 23.435 9.86165 30.6929 6.40711C38.0959 2.80237 46.5876 1 56.168 1C61.1033 1 66.6193 1.75099 72.7159 3.25296C78.8125 4.60474 83.5302 6.48221 86.8688 8.88537C89.7719 10.6877 91.2235 12.6403 91.2235 14.7431C91.2235 16.3952 90.28 18.7984 88.3929 21.9525C86.651 25.1067 85.2721 26.6838 84.256 26.6838C83.5302 26.6838 82.4415 26.3083 80.9899 25.5573C79.6835 24.8063 78.8125 24.2806 78.3771 23.9802C71.1192 20.0751 63.571 18.1225 55.7325 18.1225C47.3134 18.1225 40.491 20.3755 35.2653 24.8814C30.1848 29.3873 27.6446 35.6205 27.6446 43.581C27.6446 48.6877 28.8784 52.8181 31.3461 55.9723C33.9589 59.1264 36.8621 61.5296 40.0555 63.1818C43.3941 64.6837 49.1279 67.0869 57.2567 70.3912C65.9661 73.8458 73.0788 77.2252 78.5948 80.5296C84.1108 83.6837 88.7558 88.3398 92.5299 94.4979C96.4492 100.506 98.4088 108.241 98.4088 117.703C98.4088 131.221 94.0541 141.885 85.3446 149.696C76.6352 157.506 64.8774 161.411 50.0714 161.411Z" fill="#96000F" fill-opacity="0.8"/>
<path d="M7.41026 137.259L7.40576 137.266L7.4015 137.273C5.50713 140.439 4.5 143.018 4.5 144.964C4.5 145.933 4.90383 146.917 5.63127 147.908C6.35847 148.898 7.4314 149.925 8.82972 150.991C12.6771 154.052 18.3355 156.627 25.7661 158.738C33.2189 160.855 41.3217 161.911 50.0714 161.911C64.9668 161.911 76.8549 157.98 85.6785 150.068C94.5105 142.148 98.9088 131.339 98.9088 117.703C98.9088 108.177 96.9367 100.341 92.9526 94.2307C89.1423 88.0154 84.442 83.2981 78.8473 80.0979C73.3013 76.7761 66.1641 73.3865 57.4432 69.9273C49.3256 66.6275 43.6042 64.2295 40.2732 62.7314C37.1537 61.1152 34.307 58.7616 31.7356 55.6587C29.3566 52.6149 28.1446 48.6042 28.1446 43.581C28.1446 35.7378 30.6414 29.652 35.5945 25.2578C40.7102 20.8479 47.4072 18.6225 55.7325 18.6225C63.4755 18.6225 70.9348 20.5482 78.1164 24.4077C78.578 24.7236 79.4584 25.2536 80.7407 25.9908L80.7503 25.9963L80.7602 26.0014C82.215 26.7541 83.3985 27.1838 84.256 27.1838C84.6402 27.1838 85.0122 27.0354 85.361 26.8057C85.711 26.5752 86.0666 26.2442 86.4287 25.8301C87.1514 25.0036 87.9503 23.7876 88.8264 22.2019C90.713 19.0473 91.7235 16.5428 91.7235 14.7431C91.7235 12.383 90.0928 10.3019 87.147 8.46959C83.7343 6.01731 78.9507 4.12374 72.8298 2.76607C66.7064 1.25787 61.1513 0.5 56.168 0.5C46.525 0.5 37.957 2.31429 30.4759 5.95661C23.1413 9.44809 17.4071 14.3891 13.2891 20.7806L13.2891 20.7805L13.2847 20.7875C9.31178 27.1822 7.33057 34.4848 7.33057 42.6798C7.33057 51.901 9.08321 59.4348 12.6294 65.2446L12.6326 65.2497C16.1531 70.8656 20.4188 75.1332 25.4346 78.0336C30.3974 80.9032 37.0976 84.067 45.5269 87.5257L45.53 87.527C53.3621 90.6786 59.2912 93.3731 63.3286 95.6111L63.338 95.6163L63.3476 95.6211C67.4893 97.69 70.987 100.57 73.8445 104.266L73.8445 104.266L73.8507 104.274C76.6687 107.773 78.0948 112.236 78.0948 117.703C78.0948 125.538 75.458 131.859 70.1995 136.711C65.0829 141.417 58.3895 143.788 50.0714 143.788C43 143.788 36.889 142.892 31.7288 141.113C26.678 139.321 21.9174 137.156 17.4465 134.62C16.2105 133.868 15.2003 133.297 14.4203 132.913C14.03 132.721 13.6891 132.571 13.4012 132.468C13.1244 132.369 12.8543 132.298 12.6208 132.298C11.8301 132.298 11.016 132.82 10.2009 133.625C9.36498 134.451 8.43486 135.668 7.41026 137.259Z" stroke="#96000F"/>
</g>
<g filter="url(#filter1_d)">
<path d="M171.36 77.0671C177.149 77.0671 182.203 78.8306 186.522 82.3578C190.841 85.7869 193 91.9594 193 100.875V151.872C193 154.027 191.162 155.105 187.487 155.105H186.935C183.26 155.105 181.422 154.027 181.422 151.872V102.051C181.422 97.642 180.273 94.1639 177.976 91.6165C175.771 89.0691 172.509 87.7954 168.19 87.7954C162.309 87.7954 156.658 91.2246 151.237 98.0829C151.329 98.7687 151.375 99.7485 151.375 101.022V151.872C151.375 154.027 149.537 155.105 145.861 155.105H145.31C141.635 155.105 139.797 154.027 139.797 151.872V102.051C139.797 97.642 138.648 94.1639 136.351 91.6165C134.146 89.0691 130.884 87.7954 126.565 87.7954C123.257 87.7954 120.133 88.7752 117.192 90.7347C114.252 92.6942 111.771 95.0946 109.749 97.9359V151.872C109.749 154.027 107.912 155.105 104.236 155.105H103.685C100.009 155.105 99.1362 154.027 99.1362 151.872C99.1362 131.727 105.201 118.731 99.1362 100.287C93.0716 81.8434 97.8957 89.2161 97.3444 86.4728C96.7931 83.6315 96.5174 82.0638 96.5174 81.7699C96.5174 80.5942 97.3903 79.7614 99.1362 79.2715C100.882 78.6837 102.49 78.3898 103.96 78.3898C105.247 78.3898 106.166 79.1246 106.717 80.5942C107.36 81.9659 107.82 83.4355 108.095 85.0031C108.463 86.5707 108.693 87.5995 108.784 88.0894C111.357 84.9541 114.436 82.3578 118.019 80.3003C121.695 78.1448 125.6 77.0671 129.735 77.0671C133.87 77.0671 137.729 77.9978 141.313 79.8594C144.988 81.623 147.699 84.7582 149.445 89.2651C152.294 85.7379 155.602 82.8477 159.369 80.5942C163.228 78.2428 167.225 77.0671 171.36 77.0671Z" fill="#96000F" fill-opacity="0.8"/>
<path d="M177.598 91.9438L177.598 91.9438L177.605 91.9513C179.798 94.383 180.922 97.7293 180.922 102.051V151.872C180.922 153.124 181.473 154.098 182.547 154.728C183.58 155.334 185.065 155.605 186.935 155.605H187.487C189.357 155.605 190.842 155.334 191.875 154.728C192.949 154.098 193.5 153.124 193.5 151.872V100.875C193.5 91.9021 191.33 85.5386 186.835 81.9682C182.424 78.3668 177.259 76.5671 171.36 76.5671C167.126 76.5671 163.04 77.7723 159.11 80.1662C155.526 82.3105 152.353 85.0229 149.592 88.3007C147.804 84.1151 145.124 81.1355 141.536 79.412C137.882 77.515 133.946 76.5671 129.735 76.5671C125.509 76.5671 121.518 77.6696 117.768 79.8678C114.438 81.7803 111.535 84.1533 109.063 86.9859C108.944 86.4485 108.785 85.7535 108.585 84.9026C108.303 83.3057 107.835 81.8041 107.178 80.3997C106.882 79.6166 106.472 78.9864 105.927 78.5504C105.37 78.1053 104.706 77.8898 103.96 77.8898C102.428 77.8898 100.769 78.1953 98.9887 78.7936C98.0791 79.0502 97.3426 79.4098 96.827 79.9018C96.2945 80.4097 96.0174 81.0414 96.0174 81.7699C96.0174 81.8869 96.0412 82.0777 96.0745 82.3024C96.1099 82.5416 96.1625 82.8589 96.2317 83.2527C96.3703 84.0408 96.5777 85.1464 96.8536 86.568L96.8535 86.568L96.8542 86.5713C96.8625 86.6127 96.869 86.6495 96.874 86.6821C96.7589 86.674 96.605 86.6697 96.4681 86.6937C96.1699 86.746 95.8891 86.921 95.7204 87.2794C95.5735 87.5915 95.5257 88.0138 95.55 88.5568C95.5749 89.1117 95.6787 89.8508 95.886 90.8365C96.3009 92.809 97.1433 95.8272 98.6612 100.444C101.664 109.575 101.667 117.359 100.913 125.395C100.69 127.77 100.399 130.174 100.101 132.644C99.3909 138.516 98.6362 144.761 98.6362 151.872C98.6362 153.004 98.8643 154.007 99.7209 154.688C100.54 155.339 101.828 155.605 103.685 155.605H104.236C106.106 155.605 107.591 155.334 108.624 154.728C109.698 154.098 110.249 153.124 110.249 151.872V98.0964C112.218 95.3619 114.624 93.0471 117.47 91.1508C120.334 89.2421 123.362 88.2954 126.565 88.2954C130.782 88.2954 133.888 89.5354 135.973 91.9438L135.973 91.9438L135.98 91.9513C138.173 94.383 139.297 97.7293 139.297 102.051V151.872C139.297 153.124 139.848 154.098 140.922 154.728C141.955 155.334 143.44 155.605 145.31 155.605H145.861C147.732 155.605 149.216 155.334 150.249 154.728C151.323 154.098 151.875 153.124 151.875 151.872V101.022C151.875 99.8635 151.837 98.9297 151.759 98.2299C157.092 91.5417 162.571 88.2954 168.19 88.2954C172.408 88.2954 175.513 89.5354 177.598 91.9438ZM96.8871 86.8826C96.8871 86.8826 96.8872 86.882 96.8875 86.8808L96.8871 86.8826ZM97.09 86.6972C97.0972 86.6959 97.1015 86.6958 97.1018 86.696C97.1022 86.6962 97.0985 86.6968 97.09 86.6972Z" stroke="#96000F"/>
</g>
<defs>
<filter id="filter0_d" x="0" y="0" width="103.409" height="170.411" filterUnits="userSpaceOnUse" color-interpolation-filters="sRGB">
<feFlood flood-opacity="0" result="BackgroundImageFix"/>
<feColorMatrix in="SourceAlpha" type="matrix" values="0 0 0 0 0 0 0 0 0 0 0 0 0 0 0 0 0 0 127 0"/>
<feOffset dy="4"/>
<feGaussianBlur stdDeviation="2"/>
<feColorMatrix type="matrix" values="0 0 0 0 0 0 0 0 0 0 0 0 0 0 0 0 0 0 0.25 0"/>
<feBlend mode="normal" in2="BackgroundImageFix" result="effect1_dropShadow"/>
<feBlend mode="normal" in="SourceGraphic" in2="effect1_dropShadow" result="shape"/>
</filter>
<filter id="filter1_d" x="91.044" y="76.0671" width="106.956" height="88.0377" filterUnits="userSpaceOnUse" color-interpolation-filters="sRGB">
<feFlood flood-opacity="0" result="BackgroundImageFix"/>
<feColorMatrix in="SourceAlpha" type="matrix" values="0 0 0 0 0 0 0 0 0 0 0 0 0 0 0 0 0 0 127 0"/>
<feOffset dy="4"/>
<feGaussianBlur stdDeviation="2"/>
<feColorMatrix type="matrix" values="0 0 0 0 0 0 0 0 0 0 0 0 0 0 0 0 0 0 0.25 0"/>
<feBlend mode="normal" in2="BackgroundImageFix" result="effect1_dropShadow"/>
<feBlend mode="normal" in="SourceGraphic" in2="effect1_dropShadow" result="shape"/>
</filter>
</defs>
</svg>
    