<svg width="18" height="35" viewBox="0 0 18 35" fill="none" xmlns="http://www.w3.org/2000/svg">
<path d="M2.62275 33.7475C1.72167 33.7475 0.989422 32.8215 0.989422 31.682V3.31802C0.989422 2.1785 1.72167 1.25124 2.62275 1.25124H15.3763C16.2773 1.25124 17.0106 2.1785 17.0106 3.31802V31.682C17.0106 32.8215 16.2773 33.7475 15.3763 33.7475H2.62275ZM18 31.682V3.31802C18 1.48957 16.8231 -1.60733e-06 15.3763 -1.60733e-06H2.62275C1.17592 -1.60733e-06 -2.89624e-07 1.48957 -2.89624e-07 3.31802V31.682C-2.89624e-07 33.5117 1.17592 35 2.62275 35H15.3763C16.8231 35 18 33.5117 18 31.682Z" fill="#0D3050"/>
<path d="M6.5 8.1018V4.8982C6.5 4.12078 5.87787 3.5 5.12053 3.5H3.88075C3.12191 3.5 2.5 4.12101 2.5 4.8982V8.1018C2.5 8.87793 3.12213 9.5 3.88075 9.5H5.12053C5.87765 9.5 6.5 8.87815 6.5 8.1018Z" stroke="#0D3050"/>
</svg>
